<?xml version="1.0" standalone="no"?>
<!DOCTYPE svg PUBLIC "-//W3C//DTD SVG 20010904//EN"
 "http://www.w3.org/TR/2001/REC-SVG-20010904/DTD/svg10.dtd">
<svg version="1.0" xmlns="http://www.w3.org/2000/svg"
 width="500.000000pt" height="500.000000pt" viewBox="0 0 500.000000 500.000000"
 preserveAspectRatio="xMidYMid meet">
<metadata>
Created by potrace 1.14, written by Peter Selinger 2001-2017
</metadata>
<g transform="translate(0.000000,500.000000) scale(0.100000,-0.100000)"
fill="#000000" stroke="none">
<path d="M3532 4885 c-11 -13 -25 -46 -33 -72 -13 -48 -13 -48 -17 -15 -3 31
-25 52 -40 38 -3 -4 -9 -62 -13 -129 -5 -93 -11 -134 -28 -171 -27 -62 -108
-174 -181 -251 -32 -33 -74 -92 -94 -131 -48 -92 -126 -187 -213 -257 -37 -31
-79 -65 -93 -77 l-25 -21 25 12 c20 9 23 9 13 -1 -6 -7 -20 -14 -30 -15 -27
-2 -88 -32 -103 -49 -17 -22 -24 -20 -38 12 -6 15 -23 43 -37 62 -13 19 -31
45 -40 58 -12 16 -26 22 -53 22 -20 0 -50 7 -65 15 -62 32 -105 37 -165 20
-149 -44 -223 -195 -158 -323 24 -48 57 -84 79 -88 7 -1 26 -8 42 -15 24 -10
26 -13 12 -16 -10 -3 -28 4 -39 14 -20 18 -21 18 -14 -4 6 -19 4 -23 -15 -23
-50 0 -109 -44 -240 -178 -74 -75 -150 -158 -169 -184 -19 -26 -41 -48 -47
-48 -14 0 -46 47 -88 129 -15 30 -47 134 -71 230 -46 190 -85 280 -119 282
-18 0 -18 1 3 9 28 12 28 30 0 31 -17 1 -18 3 -6 6 11 3 21 23 29 61 7 31 49
128 92 217 44 88 88 184 98 214 41 118 33 279 -19 374 -71 132 -287 197 -480
144 -169 -46 -294 -187 -293 -330 1 -138 63 -264 190 -382 144 -134 269 -263
276 -285 5 -15 15 -20 43 -21 l37 -1 -33 -11 c-31 -10 -33 -13 -28 -42 5 -27
3 -33 -14 -38 -20 -5 -28 -27 -10 -27 6 0 10 -5 10 -11 0 -5 -5 -7 -11 -3 -8
5 -10 -10 -7 -54 3 -46 11 -70 34 -101 16 -23 39 -58 52 -79 22 -34 23 -35 17
-9 -4 20 -2 27 6 22 6 -4 9 -18 6 -31 -14 -76 40 -373 66 -357 6 3 7 1 3 -5
-4 -6 7 -52 24 -102 16 -50 30 -97 30 -104 0 -23 36 -46 72 -46 42 0 102 23
91 35 -5 4 -3 5 4 1 11 -6 75 21 266 114 81 39 112 60 88 60 -5 0 -13 -4 -16
-10 -3 -5 -14 -10 -23 -10 -20 0 -7 12 31 28 21 9 27 9 21 0 -5 -8 -2 -9 9 -5
36 14 102 -80 132 -188 23 -84 37 -118 44 -107 3 6 7 -16 8 -49 2 -50 -1 -62
-25 -91 -27 -32 -27 -33 -24 -167 2 -85 -5 -216 -17 -349 -12 -117 -21 -217
-21 -222 0 -6 -9 -10 -19 -10 -27 0 -33 -12 -47 -94 -13 -78 -9 -98 30 -139
26 -28 26 -28 16 -120 -6 -50 -14 -95 -18 -99 -4 -4 -36 -12 -72 -17 -129 -21
-209 -63 -417 -223 l-103 -79 -50 40 c-27 22 -63 42 -79 46 -78 17 -146 -74
-166 -220 -8 -59 -17 -78 -61 -127 -39 -44 -68 -134 -59 -181 13 -63 16 -69
37 -64 19 5 19 5 2 -14 -17 -19 -17 -21 1 -55 11 -20 24 -33 32 -30 7 3 12 0
10 -6 -3 -17 70 -35 91 -22 9 6 32 39 50 75 18 35 44 80 57 100 l24 37 -40 42
c-22 23 -37 46 -33 51 3 6 14 -2 23 -18 10 -15 25 -34 34 -42 15 -12 19 -9 32
22 8 20 15 41 15 47 0 13 -17 13 -25 0 -3 -5 -1 -10 5 -10 6 0 8 -5 4 -11 -4
-8 -9 -7 -15 2 -4 7 -3 19 2 26 6 7 7 18 3 24 -4 8 -3 9 4 5 7 -4 12 -2 12 3
0 6 -9 16 -20 23 -11 7 -20 18 -20 25 0 19 4 17 44 -23 24 -24 42 -34 52 -30
9 4 23 1 30 -5 11 -9 14 -6 14 18 0 16 5 34 12 41 7 7 8 12 2 12 -6 0 -16 -11
-22 -25 -13 -29 -30 -32 -39 -7 -3 9 -24 36 -46 59 -40 42 -40 43 -22 63 10
11 20 18 23 15 3 -3 11 0 18 6 10 8 14 2 19 -24 7 -37 49 -86 62 -73 5 4 0 13
-9 20 -10 7 -15 16 -12 19 4 4 15 -5 26 -18 20 -26 44 -34 35 -12 -2 6 -1 21
4 32 7 17 8 17 8 -7 l1 -27 51 29 c28 17 96 44 152 59 210 61 283 79 332 86
170 24 255 86 341 251 20 38 40 74 44 79 5 6 14 31 19 55 13 58 65 199 94 257
l24 45 34 -53 c20 -30 47 -74 61 -99 14 -25 44 -65 65 -90 58 -66 73 -92 73
-120 -1 -35 -12 -47 -125 -124 -55 -38 -115 -85 -133 -105 -19 -20 -44 -47
-57 -61 -13 -14 -57 -50 -99 -80 -67 -49 -75 -59 -76 -88 0 -20 4 -31 10 -27
6 3 10 -1 10 -10 0 -26 -28 -85 -41 -85 -11 0 -9 28 6 105 9 47 -4 56 -78 57
-60 0 -70 -3 -107 -32 -51 -40 -52 -69 -6 -202 31 -90 32 -101 21 -144 -16
-63 -3 -128 44 -230 37 -77 40 -81 77 -87 21 -4 43 -2 48 3 5 5 12 51 17 102
9 102 33 183 79 265 17 29 33 74 37 98 9 72 25 81 438 251 285 118 308 136
311 241 l2 68 -6 -62 c-7 -65 -29 -104 -72 -131 -17 -11 -13 -3 14 25 33 36
39 50 43 95 4 50 3 52 -10 29 -14 -24 -15 -24 -21 25 -16 136 -15 152 11 159
13 3 29 3 35 -1 8 -5 9 25 5 107 -4 89 -14 145 -45 259 -55 201 -70 274 -82
387 -12 118 -32 160 -87 188 -23 11 -45 28 -50 39 -9 19 9 186 27 256 5 19 9
37 8 40 -1 3 4 15 10 27 20 37 31 147 21 222 -7 60 -46 178 -54 169 -2 -2 7
-34 21 -73 28 -84 32 -213 9 -293 -14 -47 -18 -52 -40 -46 -25 6 -240 -65
-490 -163 -151 -60 -177 -74 -243 -137 -50 -48 -60 -42 -64 39 -3 83 1 105 27
139 14 18 25 38 25 45 0 17 82 172 88 167 2 -3 -12 -35 -32 -72 -20 -36 -36
-68 -34 -69 7 -6 102 128 178 250 44 71 80 125 80 121 0 -9 -50 -92 -199 -329
-62 -98 -110 -184 -108 -190 3 -7 14 8 26 33 19 41 21 31 5 -27 -14 -52 15
-18 49 56 20 44 41 82 46 86 14 8 15 9 -14 -75 -14 -40 -24 -75 -22 -76 8 -9
93 23 192 71 61 29 132 61 158 70 34 12 65 35 100 72 70 73 233 190 172 123
-10 -12 -20 -28 -21 -38 -1 -9 -4 -29 -8 -43 -7 -25 -5 -27 36 -33 54 -9 64 3
73 92 3 37 11 84 16 106 9 31 6 51 -12 110 -13 39 -24 80 -24 91 -3 38 -5 46
-12 42 -5 -3 -8 5 -9 16 0 12 -8 57 -17 99 -9 42 -17 118 -17 168 0 86 2 97
42 183 38 83 192 350 222 387 7 8 54 83 103 165 61 100 103 185 128 255 49
139 49 137 136 227 107 111 137 153 108 153 -5 0 -7 -5 -4 -10 4 -6 -32 -50
-80 -98 -48 -48 -85 -79 -81 -69 3 10 1 27 -4 37 -8 15 -5 22 12 35 21 14 24
14 37 -2 13 -17 13 -17 8 0 -5 12 -1 17 11 17 10 0 34 16 53 36 30 32 31 35 9
25 l-25 -12 24 20 c27 25 16 28 -17 5 -12 -8 -19 -20 -16 -26 4 -6 -2 -6 -15
1 -11 7 -21 13 -21 15 0 2 11 24 25 49 29 51 25 83 -7 66 -11 -6 -17 -16 -15
-23 3 -7 -1 -13 -9 -13 -17 0 -17 7 -4 41 5 14 7 33 4 41 -8 20 -39 3 -58 -33
l-15 -27 -1 38 c0 43 -11 47 -38 12z m-1 -36 c-5 -13 -10 -19 -10 -12 -1 15
10 45 15 40 3 -2 0 -15 -5 -28z m-74 -71 c1 -29 4 -69 8 -88 4 -23 1 -48 -9
-72 -9 -21 -17 -38 -19 -38 -1 0 -1 42 1 92 4 137 18 213 19 106z m100 10 c-3
-7 -5 -2 -5 12 0 14 2 19 5 13 2 -7 2 -19 0 -25z m59 -24 c-4 -9 -9 -15 -11
-12 -3 3 -3 13 1 22 4 9 9 15 11 12 3 -3 3 -13 -1 -22z m-2096 -37 c134 -66
181 -203 145 -418 -9 -57 -21 -111 -26 -119 -12 -21 -11 -15 6 65 19 90 19
237 0 301 -8 27 -28 67 -44 90 -35 46 -122 98 -150 89 -11 -3 -22 -1 -26 5 -3
5 -16 10 -28 11 -21 0 -21 1 -2 9 26 11 46 6 125 -33z m1970 12 c0 -6 -4 -7
-10 -4 -5 3 -10 11 -10 16 0 6 5 7 10 4 6 -3 10 -11 10 -16z m-2016 -24 c3 -8
13 -15 21 -15 9 0 13 -5 9 -11 -4 -7 -10 -7 -16 -1 -13 13 -38 4 -38 -14 0 -7
7 -17 15 -22 23 -12 9 -45 -14 -32 -17 9 -56 -9 -72 -33 -7 -9 -49 53 -49 72
0 16 34 48 62 56 19 6 21 5 11 -6 -20 -20 -16 -38 7 -32 11 3 20 13 20 23 0
16 11 27 31 29 4 1 9 -6 13 -14z m2193 -11 c-3 -3 -12 -4 -19 -1 -8 3 -5 6 6
6 11 1 17 -2 13 -5z m-2347 -29 c0 -8 -9 -15 -20 -15 -11 0 -20 7 -20 15 0 8
9 15 20 15 11 0 20 -7 20 -15z m-74 -6 c7 -12 -15 -31 -28 -23 -4 3 -8 12 -8
20 0 17 26 19 36 3z m-76 -19 c0 -11 -4 -20 -9 -20 -14 0 -23 18 -16 30 10 17
25 11 25 -10z m376 -15 c-5 -14 -9 -15 -21 -5 -12 10 -13 16 -4 27 15 18 34 1
25 -22z m-446 0 c0 -8 -9 -15 -20 -15 -11 0 -20 7 -20 15 0 8 9 15 20 15 11 0
20 -7 20 -15z m211 -5 c25 -14 24 -36 -1 -43 -11 -3 -20 -10 -20 -16 0 -14 23
-14 37 0 7 7 12 3 15 -16 8 -38 -16 -42 -49 -8 -15 16 -38 29 -51 30 -30 2
-24 -18 11 -35 32 -15 35 -32 7 -32 -12 0 -24 10 -30 24 -12 31 -22 37 -41 22
-16 -11 -16 -13 0 -32 9 -11 25 -23 35 -27 10 -4 16 -10 13 -13 -3 -4 -14 -3
-24 1 -10 5 -25 9 -33 9 -8 1 -15 8 -15 16 0 8 -3 17 -7 20 -4 3 -9 17 -10 30
-3 27 41 58 53 38 5 -8 18 -3 41 15 38 30 42 31 69 17z m243 -36 c18 -7 10
-34 -10 -34 -8 0 -14 9 -14 20 0 22 1 23 24 14z m-444 -29 c0 -8 -7 -15 -15
-15 -8 0 -15 7 -15 15 0 8 7 15 15 15 8 0 15 -7 15 -15z m380 0 c0 -8 -6 -15
-14 -15 -17 0 -28 14 -19 24 12 12 33 6 33 -9z m-454 -6 c10 -17 -13 -36 -27
-22 -12 12 -4 33 11 33 5 0 12 -5 16 -11z m380 0 c10 -17 -13 -36 -27 -22 -12
12 -4 33 11 33 5 0 12 -5 16 -11z m2054 -34 c-7 -20 -18 -66 -26 -102 -14 -68
-40 -118 -86 -168 -16 -16 -31 -40 -33 -52 -3 -13 -7 -33 -10 -45 -2 -13 -25
-36 -52 -54 -64 -42 -180 -150 -188 -174 -10 -31 4 -44 26 -24 10 9 19 12 19
6 0 -6 -5 -14 -11 -17 -6 -4 -14 -15 -17 -26 -6 -15 -14 -6 -41 44 l-34 62 52
69 c28 37 63 90 77 117 13 27 45 70 69 95 38 39 107 117 216 248 14 17 29 40
32 50 13 35 19 8 7 -29z m-1894 -6 c10 -17 -13 -36 -27 -22 -12 12 -4 33 11
33 5 0 12 -5 16 -11z m-419 -29 c13 -16 31 -30 40 -30 8 0 13 -7 11 -17 -2
-10 -12 -18 -23 -18 -29 -1 -65 -15 -65 -26 0 -5 -12 2 -27 16 -27 24 -59 37
-35 13 8 -8 9 -15 0 -25 -8 -10 -7 -18 6 -31 20 -23 21 -42 0 -42 -8 0 -22 -7
-30 -15 -9 -8 -21 -15 -27 -15 -7 0 -4 5 6 11 9 5 17 17 17 24 0 18 -5 18 -31
4 -15 -7 -24 -7 -34 1 -16 13 -10 36 12 44 13 5 14 4 3 -9 -18 -22 -9 -27 35
-17 l38 8 -31 36 c-34 37 -43 60 -17 38 12 -10 19 -10 27 -2 15 15 48 16 48 2
0 -5 7 -10 15 -10 19 0 19 9 1 29 -17 20 -4 61 19 61 9 0 28 -13 42 -30z m343
5 c0 -8 -7 -15 -15 -15 -8 0 -15 7 -15 15 0 8 7 15 15 15 8 0 15 -7 15 -15z
m-450 -8 c0 -8 -3 -17 -7 -20 -9 -9 -34 13 -27 24 8 14 34 11 34 -4z m380 -1
c0 -8 -5 -18 -11 -22 -14 -8 -33 11 -25 25 10 16 36 13 36 -3z m-75 -17 c0 -7
-8 -15 -17 -17 -18 -3 -25 18 -11 32 10 10 28 1 28 -15z m-72 -14 c1 -5 -6
-11 -15 -13 -11 -2 -18 3 -18 13 0 17 30 18 33 0z m305 -18 c2 -10 -3 -17 -12
-17 -18 0 -29 16 -21 31 9 14 29 6 33 -14z m-70 -9 c-7 -19 -38 -22 -38 -4 0
10 9 16 21 16 12 0 19 -5 17 -12z m-75 -4 c3 -3 3 -12 0 -19 -6 -17 -33 -8
-33 11 0 14 21 19 33 8z m-75 -27 c2 -10 -3 -17 -12 -17 -10 0 -16 9 -16 21 0
24 23 21 28 -4z m2117 -68 c-14 -35 -37 -81 -50 -101 -14 -21 -25 -40 -25 -43
0 -3 -59 -99 -132 -213 -72 -114 -161 -263 -196 -332 -35 -69 -65 -127 -68
-129 -2 -2 -2 24 1 59 2 34 7 65 11 69 3 3 5 -15 3 -41 -5 -60 4 -49 20 23 8
38 21 65 40 83 21 20 29 37 28 61 -1 21 -5 31 -11 27 -6 -3 -4 3 4 15 8 11 44
62 79 114 35 51 90 120 121 154 41 44 76 99 126 198 71 141 95 167 49 56z
m-2185 56 c0 -8 -9 -15 -20 -15 -11 0 -20 7 -20 15 0 8 9 15 20 15 11 0 20 -7
20 -15z m-80 -15 c0 -11 -4 -20 -9 -20 -14 0 -23 18 -16 30 10 17 25 11 25
-10z m378 -3 c2 -10 -3 -17 -12 -17 -10 0 -16 9 -16 21 0 24 23 21 28 -4z
m-448 -7 c0 -11 -7 -20 -15 -20 -15 0 -21 21 -8 33 12 13 23 7 23 -13z m380 1
c0 -14 -18 -23 -30 -16 -6 4 -8 11 -5 16 8 12 35 12 35 0z m-72 -18 c2 -8 -5
-13 -17 -13 -12 0 -21 6 -21 16 0 18 31 15 38 -3z m-74 -8 c3 -9 -1 -18 -10
-22 -19 -7 -28 2 -21 22 8 19 23 19 31 0z m-74 -20 c0 -8 -6 -15 -14 -15 -17
0 -28 14 -19 24 12 12 33 6 33 -9z m-70 -9 c0 -8 -5 -18 -11 -22 -14 -8 -33
11 -25 25 10 16 36 13 36 -3z m376 3 c10 -17 -13 -36 -27 -22 -12 12 -4 33 11
33 5 0 12 -5 16 -11z m-446 -20 c0 -12 -29 -24 -37 -16 -3 4 -3 13 0 21 6 16
37 11 37 -5z m370 -4 c0 -8 -6 -15 -14 -15 -17 0 -28 14 -19 24 12 12 33 6 33
-9z m-450 -10 c0 -8 -6 -15 -14 -15 -17 0 -28 14 -19 24 12 12 33 6 33 -9z
m380 1 c0 -8 -4 -17 -8 -20 -13 -8 -35 11 -28 23 10 16 36 14 36 -3z m-74 -7
c10 -17 -13 -36 -27 -22 -12 12 -4 33 11 33 5 0 12 -5 16 -11z m-76 -25 c0 -8
-7 -14 -15 -14 -15 0 -21 21 -9 33 10 9 24 -2 24 -19z m-70 -7 c0 -8 -3 -17
-7 -20 -9 -9 -34 13 -27 24 8 14 34 11 34 -4z m376 2 c10 -17 -13 -36 -27 -22
-12 12 -4 33 11 33 5 0 12 -5 16 -11z m-450 -10 c10 -17 -13 -36 -27 -22 -12
12 -4 33 11 33 5 0 12 -5 16 -11z m382 -11 c-7 -19 -38 -22 -38 -4 0 10 9 16
21 16 12 0 19 -5 17 -12z m-455 -13 c1 -5 -6 -11 -15 -13 -11 -2 -18 3 -18 13
0 17 30 18 33 0z m375 -2 c-4 -22 -22 -20 -26 1 -2 10 3 16 13 16 10 0 15 -7
13 -17z m-72 -4 c10 -17 -13 -36 -27 -22 -12 12 -4 33 11 33 5 0 12 -5 16 -11z
m-66 -24 c0 -8 -9 -15 -20 -15 -11 0 -20 7 -20 15 0 8 9 15 20 15 11 0 20 -7
20 -15z m-82 -12 c-4 -22 -22 -20 -26 1 -2 10 3 16 13 16 10 0 15 -7 13 -17z
m-70 -16 c2 -10 -3 -17 -12 -17 -18 0 -29 16 -21 31 9 14 29 6 33 -14z m378
12 c10 -17 -13 -36 -27 -22 -12 12 -4 33 11 33 5 0 12 -5 16 -11z m-71 -20 c0
-7 -8 -15 -17 -17 -18 -3 -25 18 -11 32 10 10 28 1 28 -15z m-375 -4 c0 -8 -9
-15 -20 -15 -11 0 -20 7 -20 15 0 8 9 15 20 15 11 0 20 -7 20 -15z m300 -10
c0 -8 -7 -15 -15 -15 -8 0 -15 7 -15 15 0 8 7 15 15 15 8 0 15 -7 15 -15z
m-74 -6 c10 -17 -13 -36 -27 -22 -12 12 -4 33 11 33 5 0 12 -5 16 -11z m-68
-21 c-7 -19 -38 -22 -38 -4 0 10 9 16 21 16 12 0 19 -5 17 -12z m-80 -15 c-5
-25 -28 -28 -28 -4 0 12 6 21 16 21 9 0 14 -7 12 -17z m272 -85 c-1 -20 -27
-125 -35 -137 -15 -25 -44 -9 -81 47 -51 75 -51 70 -12 87 42 18 128 20 128 3z
m900 -83 c0 -11 5 -12 26 -5 36 14 39 13 19 -10 -17 -19 -17 -20 1 -19 10 0
28 4 39 8 30 12 45 2 45 -30 0 -26 -3 -28 -47 -31 -41 -3 -57 3 -112 37 l-64
39 29 13 c39 17 64 16 64 -2z m586 -22 c-13 -21 -29 -37 -35 -36 -6 2 -8 -4
-5 -12 7 -17 -11 -21 -21 -4 -5 7 -12 6 -24 -3 -9 -7 8 10 39 39 30 29 58 52
63 53 4 0 -4 -17 -17 -37z m-641 -113 c10 -11 16 -22 13 -25 -3 -3 -30 -8 -59
-10 -30 -2 -46 -2 -37 1 10 3 15 11 11 21 -5 13 -3 13 15 4 31 -17 37 -13 17
9 -18 19 -17 20 2 20 11 0 28 -9 38 -20z m345 -47 c0 -7 -4 -13 -10 -13 -5 0
-10 12 -10 28 0 21 2 24 10 12 5 -8 10 -21 10 -27z m407 5 c-3 -8 -6 -5 -6 6
-1 11 2 17 5 13 3 -3 4 -12 1 -19z m-287 -20 c-59 -9 -77 -22 -108 -78 -10
-19 -23 -35 -28 -35 -5 0 -25 -11 -44 -24 -27 -19 -23 -13 15 23 31 29 46 49
39 54 -7 4 -8 15 -3 30 12 31 21 28 14 -5 l-6 -28 29 33 c37 42 98 65 127 49
17 -10 13 -12 -35 -19z m197 -70 c-2 -13 -4 -3 -4 22 0 25 2 35 4 23 2 -13 2
-33 0 -45z m-634 -41 l29 -30 -29 -23 c-15 -13 -31 -23 -34 -24 -7 0 -29 103
-29 134 1 20 2 20 18 -3 9 -13 30 -37 45 -54z m452 43 c-3 -5 -13 -10 -21 -10
-8 0 -14 5 -14 10 0 6 9 10 21 10 11 0 17 -4 14 -10z m108 -12 c22 -22 43 -79
66 -178 10 -44 10 -43 6 20 -4 60 -3 62 6 25 6 -22 8 -55 5 -74 -5 -34 7 -120
23 -156 8 -20 39 -145 36 -145 -9 0 -113 200 -112 215 2 17 -6 21 -47 26 -34
4 -54 12 -67 28 -23 29 -26 73 -4 65 8 -4 15 -10 15 -16 0 -5 4 -7 8 -4 5 3 7
19 4 36 -3 22 0 30 11 30 25 0 30 19 17 61 -8 23 -20 39 -29 39 -11 1 -8 6 9
15 14 8 19 14 12 15 -15 0 -6 20 9 20 5 0 20 -10 32 -22z m-1355 -73 c0 -5 -6
4 -13 20 -8 17 -14 37 -14 45 0 8 7 -1 14 -20 7 -19 13 -39 13 -45z m950 55
c-14 -22 -24 -19 -15 5 4 8 11 15 17 15 6 0 6 -7 -2 -20z m-1117 -93 c-17 -17
-24 18 -9 45 l13 23 3 -29 c2 -16 -1 -33 -7 -39z m1148 33 c-7 -5 -18 -6 -24
-2 -6 4 -3 8 8 10 9 2 17 9 18 15 0 7 3 7 6 -2 3 -7 -1 -17 -8 -21z m12 -20
c-17 -15 -22 -26 -17 -45 10 -41 -21 -31 -34 11 -7 20 -15 32 -19 27 -3 -6
-15 -7 -26 -3 -17 6 -14 9 17 15 20 4 40 5 45 2 4 -2 17 -1 28 4 31 12 32 10
6 -11z m228 -10 c-19 -18 -76 -48 -152 -79 -67 -27 -167 -68 -221 -90 -55 -22
-101 -40 -102 -38 -3 3 486 235 498 236 3 1 -7 -12 -23 -29z m-319 -17 c0 -5
-50 -41 -112 -82 -85 -56 -108 -75 -97 -83 11 -8 10 -9 -4 -4 -10 3 -27 1 -38
-4 -15 -8 -19 -7 -19 3 0 8 51 48 113 88 134 88 157 100 157 82z m-295 -81
c-69 -44 -137 -115 -129 -135 3 -9 -6 -19 -25 -27 -17 -6 -33 -12 -35 -11 -3
0 -25 -20 -48 -45 -51 -55 -100 -85 -53 -33 72 82 99 108 106 103 5 -2 15 8
23 23 21 41 110 121 159 143 66 31 67 23 2 -18z m450 -162 c-118 -57 -133 -61
-75 -19 55 40 118 69 150 68 17 -1 -6 -16 -75 -49z m-445 16 c0 -2 -8 -10 -17
-17 -16 -13 -17 -12 -4 4 13 16 21 21 21 13z m599 -68 c-15 -66 -17 -67 -18
-10 -1 38 3 52 13 52 11 0 12 -8 5 -42z m-1234 -176 c-6 -6 -35 105 -34 130 0
12 9 -11 19 -52 10 -41 17 -76 15 -78z m1077 36 c54 -16 63 -22 53 -38 -5 -8
-11 -8 -19 0 -7 5 -34 13 -60 16 -40 6 -51 3 -85 -20 -81 -56 -120 -123 -146
-249 -12 -60 -21 -85 -28 -78 -7 7 -7 14 1 23 11 14 21 60 26 129 3 45 16 67
127 212 24 32 37 32 131 5z m105 -35 c-9 -9 -20 -13 -24 -9 -4 4 -1 11 7 16
25 16 35 11 17 -7z m-147 -32 c0 -5 -6 -14 -14 -20 -10 -9 -15 -8 -19 3 -3 8
-1 17 6 20 19 7 27 7 27 -3z m-690 -70 c19 -17 31 -30 25 -30 -5 0 -35 23 -65
51 -56 51 -25 35 40 -21z m628 1 c-12 -20 -27 -40 -34 -45 -7 -4 -20 -31 -30
-60 -29 -88 -54 -100 -54 -24 0 50 6 59 47 81 17 8 42 34 54 55 12 22 26 38
31 35 5 -3 -1 -22 -14 -42z m-464 -17 c-25 -19 -40 -19 -24 0 7 8 20 15 28 15
13 0 12 -3 -4 -15z m-385 -142 c20 -21 20 -23 4 -23 -32 0 -43 15 -63 81 -26
83 -25 85 10 19 15 -30 38 -65 49 -77z m261 83 c0 -3 -4 -8 -10 -11 -5 -3 -10
-1 -10 4 0 6 5 11 10 11 6 0 10 -2 10 -4z m1174 -274 c-4 -18 -11 -32 -16 -32
-6 0 -8 9 -5 20 4 17 0 20 -24 20 -42 0 -35 18 9 22 20 2 38 3 40 2 1 0 -1
-15 -4 -32z m-580 11 c-5 -5 -12 -12 -16 -18 -4 -6 -8 -2 -8 8 0 9 7 17 17 17
9 0 12 -3 7 -7z m27 -66 c-16 -16 -25 -1 -10 16 8 8 16 11 18 5 2 -5 -2 -15
-8 -21z m526 -134 c-3 -10 -5 -4 -5 12 0 17 2 24 5 18 2 -7 2 -21 0 -30z m123
-271 c0 -4 -6 -14 -12 -21 -11 -11 -10 -13 5 -8 23 9 22 0 -3 -13 -15 -8 -20
-8 -18 1 2 6 -2 13 -9 16 -6 2 -10 -4 -9 -14 2 -10 1 -12 -1 -5 -3 6 -9 12
-15 12 -7 0 -3 9 8 19 19 20 54 28 54 13z m-70 -57 c18 -22 -4 -46 -22 -26
-11 11 -10 13 5 8 9 -4 17 -2 17 3 0 9 -15 14 -33 11 -5 -1 -6 3 -2 9 9 14 20
12 35 -5z m-40 -29 c14 -18 13 -19 -4 -13 -14 6 -17 4 -12 -8 3 -8 1 -15 -4
-15 -6 0 -10 5 -10 10 0 6 -5 10 -11 10 -6 0 -8 -7 -5 -16 3 -8 2 -12 -4 -9
-18 11 -11 35 10 35 12 0 20 7 20 17 0 9 1 14 3 12 1 -2 9 -13 17 -23z m-65
-43 l18 -28 -21 19 c-12 11 -22 23 -22 28 0 14 7 9 25 -19z m-731 -532 c20
-39 28 -81 16 -81 -5 0 -10 14 -10 31 0 16 -4 28 -9 25 -5 -3 -9 -24 -9 -47
-1 -52 -22 -79 -22 -28 0 25 -3 30 -10 19 -11 -18 -14 48 -4 99 5 26 9 29 21
19 8 -6 20 -23 27 -37z m709 -126 c-5 -13 -7 -13 -19 2 -19 26 -17 35 6 23 11
-6 17 -16 13 -25z m-782 -66 c-6 -24 -9 -28 -10 -12 -1 24 9 56 16 50 2 -3 0
-20 -6 -38z m46 -1 c-3 -7 -5 -2 -5 12 0 14 2 19 5 13 2 -7 2 -19 0 -25z
m-157 12 c-8 -5 -45 -21 -82 -36 -57 -22 -68 -29 -73 -55 -4 -16 -14 -33 -23
-38 -14 -8 -14 -11 -2 -26 13 -15 11 -20 -15 -41 -25 -20 -31 -21 -38 -9 -4 8
-13 15 -19 15 -7 0 -50 -37 -97 -82 -65 -63 -86 -79 -89 -65 -4 21 -4 21 -53
-3 l-40 -21 4 35 c4 34 3 35 -27 30 -49 -9 -86 -25 -95 -43 -5 -9 -6 -55 -2
-104 6 -79 1 -108 -12 -74 -3 7 -6 4 -6 -6 -1 -10 -5 -16 -10 -13 -4 3 -6 -6
-3 -19 3 -16 0 -25 -8 -25 -18 0 -5 251 15 290 34 65 88 77 142 30 18 -16 37
-30 41 -30 4 0 68 46 142 101 74 55 154 112 177 126 61 35 221 94 173 63z
m462 -22 c-7 -7 -12 -8 -12 -2 0 14 12 26 19 19 2 -3 -1 -11 -7 -17z m436 -40
c6 -33 7 -57 1 -62 -5 -6 -9 -2 -9 10 0 11 -6 29 -14 39 -12 17 -17 18 -41 7
-27 -12 -27 -12 6 21 19 19 37 35 40 36 4 0 11 -23 17 -51z m-244 -207 c-27
-25 -91 -85 -142 -133 l-93 -87 15 -30 c9 -16 25 -36 35 -43 17 -12 19 -23 15
-63 -2 -28 -9 -54 -14 -59 -5 -5 -7 12 -5 42 4 44 2 53 -18 67 -19 13 -22 13
-25 1 -4 -20 -23 -25 -51 -15 l-23 9 25 20 c27 22 51 97 41 134 -5 20 4 31 58
72 35 26 96 82 137 123 l74 76 10 -34 c10 -32 9 -35 -39 -80z m-821 52 c-7 -2
-13 -12 -13 -20 0 -9 -3 -14 -6 -10 -10 10 4 37 18 36 10 0 10 -2 1 -6z m37
-58 c0 -8 -7 -15 -15 -15 -13 0 -14 3 -3 15 16 18 18 18 18 0z m200 -24 c-14
-4 -38 -11 -55 -14 l-30 -7 25 15 c14 8 39 14 55 14 29 -1 29 -1 5 -8z m925
-36 c-35 -16 -54 -20 -62 -13 -20 16 -8 24 39 27 23 1 44 4 47 7 2 2 9 4 15 3
6 0 -11 -11 -39 -24z m-1751 -57 c-4 -35 -11 -67 -16 -73 -10 -9 -6 31 8 108
10 49 14 29 8 -35z m206 33 c-6 -12 -17 -21 -24 -21 -8 0 -19 -7 -26 -15 -7
-9 -15 -13 -18 -10 -6 5 71 75 76 70 2 -2 -1 -13 -8 -24z m890 -61 c0 -5 -13
-10 -29 -10 -39 0 -91 -44 -92 -78 -1 -18 -4 -13 -10 17 -12 62 6 81 78 81 29
0 53 -4 53 -10z m-1098 -118 c3 -9 1 -26 -3 -37 -6 -15 -8 -11 -8 18 -1 40 4
48 11 19z m-72 -36 c0 -2 -8 -10 -17 -17 -16 -13 -17 -12 -4 4 13 16 21 21 21
13z m1085 -26 l20 -25 -22 19 c-13 11 -23 24 -23 29 0 6 1 8 3 6 1 -2 11 -15
22 -29z m-1055 10 c0 -5 -5 -10 -11 -10 -5 0 -7 5 -4 10 3 6 8 10 11 10 2 0 4
-4 4 -10z m1084 -109 c-6 -7 -57 33 -62 49 -3 7 11 0 31 -16 20 -15 34 -30 31
-33z m-976 28 c-10 -5 -18 -17 -18 -24 0 -17 6 -17 35 -6 11 5 25 4 32 -1 16
-13 -4 -58 -26 -58 -14 1 -13 2 2 11 9 5 17 17 17 25 0 12 -7 14 -30 9 -22 -5
-32 -3 -36 9 -7 18 12 46 30 46 6 0 3 -5 -6 -11z m-52 -45 c-3 -9 3 -29 15
-45 11 -16 17 -29 12 -29 -4 0 -18 15 -30 34 -16 25 -19 36 -10 45 15 15 20
14 13 -5z m1158 -11 c-5 -5 -12 -12 -16 -18 -4 -6 -8 -2 -8 8 0 9 7 17 17 17
9 0 12 -3 7 -7z m-1196 -69 c-25 -24 -48 -16 -48 17 0 28 31 41 53 21 17 -15
17 -17 -5 -38z m1019 14 c-3 -8 -6 -5 -6 6 -1 11 2 17 5 13 3 -3 4 -12 1 -19z
m-1057 -73 c5 3 11 1 15 -5 3 -5 -1 -10 -9 -10 -17 0 -56 38 -56 54 0 6 10 -1
21 -17 11 -15 25 -25 29 -22z m60 25 c-19 -12 -30 -12 -30 -1 0 10 31 20 40
14 2 -2 -2 -8 -10 -13z m1137 -72 c-3 -8 -6 -5 -6 6 -1 11 2 17 5 13 3 -3 4
-12 1 -19z"/>
<path d="M1345 4670 c-8 -13 3 -50 15 -50 5 0 12 5 15 11 4 6 13 8 21 5 22 -8
44 4 44 25 0 16 -3 17 -24 8 -17 -8 -29 -8 -44 0 -14 7 -23 8 -27 1z"/>
<path d="M1271 4616 c-8 -10 -9 -16 -1 -21 13 -8 30 3 30 21 0 18 -14 18 -29
0z"/>
<path d="M3224 4218 c-28 -13 -48 -56 -34 -73 5 -6 6 -16 2 -21 -4 -5 5 2 20
15 23 20 47 76 36 85 -1 2 -13 -1 -24 -6z"/>
<path d="M1118 4486 c-16 -12 -16 -14 6 -35 14 -13 29 -20 35 -16 15 9 14 16
-7 42 -14 19 -20 20 -34 9z"/>
<path d="M3130 3819 c0 -5 5 -7 10 -4 6 3 10 8 10 11 0 2 -4 4 -10 4 -5 0 -10
-5 -10 -11z"/>
<path d="M1407 813 c-4 -3 -7 -11 -7 -17 0 -6 5 -5 12 2 6 6 9 14 7 17 -3 3
-9 2 -12 -2z"/>
<path d="M1275 520 c-11 -17 5 -32 21 -19 8 6 14 15 14 20 0 12 -27 11 -35 -1z"/>
<path d="M2968 2653 c7 -3 16 -2 19 1 4 3 -2 6 -13 5 -11 0 -14 -3 -6 -6z"/>
<path d="M2296 2394 c-4 -10 -1 -14 6 -12 15 5 23 28 10 28 -5 0 -13 -7 -16
-16z"/>
<path d="M3332 1300 c0 -14 2 -19 5 -12 2 6 2 18 0 25 -3 6 -5 1 -5 -13z"/>
<path d="M1570 689 c0 -5 5 -7 10 -4 6 3 10 8 10 11 0 2 -4 4 -10 4 -5 0 -10
-5 -10 -11z"/>
<path d="M1533 652 c-13 -15 -23 -31 -23 -35 0 -5 12 6 26 23 15 17 25 33 23
35 -2 2 -14 -9 -26 -23z"/>
</g>
</svg>
